<?xml version="1.0" standalone="no"?>
<!DOCTYPE svg PUBLIC "-//W3C//DTD SVG 20010904//EN"
 "http://www.w3.org/TR/2001/REC-SVG-20010904/DTD/svg10.dtd">
<svg version="1.0" xmlns="http://www.w3.org/2000/svg"
 width="89.000000pt" height="89.000000pt" viewBox="0 0 89.000000 89.000000"
 preserveAspectRatio="xMidYMid meet">
<metadata>
Created by potrace 1.14, written by Peter Selinger 2001-2017
</metadata>
<g transform="translate(0.000000,89.000000) scale(0.100000,-0.100000)"
fill="#000000" stroke="none">
<path d="M325 879 c-22 -5 -47 -12 -55 -16 -8 -3 -17 -7 -20 -7 -17 -3 -123
-62 -140 -78 -17 -16 -20 -31 -20 -116 0 -92 2 -101 31 -147 66 -105 107 -120
326 -126 70 -2 97 -7 107 -18 15 -17 18 -51 4 -51 -4 0 -8 -5 -8 -11 0 -13
-110 -119 -124 -119 -15 0 -146 74 -146 82 0 4 -7 8 -15 8 -17 0 -155 132
-155 149 0 6 -4 11 -9 11 -10 0 7 -80 20 -94 5 -6 9 -16 9 -24 0 -20 63 -120
102 -163 18 -20 74 -63 124 -96 l90 -59 77 47 c72 45 103 71 154 132 28 34 81
137 87 171 3 14 8 35 11 46 10 30 -68 117 -112 125 -10 2 -19 4 -20 5 -2 2 -7
4 -13 5 -5 1 -11 4 -12 5 -6 5 -55 10 -138 14 -47 3 -87 5 -90 6 -3 1 -8 2
-12 1 -4 0 -23 14 -42 33 -33 30 -35 35 -23 59 18 38 79 62 157 62 89 -1 161
-35 245 -118 36 -35 67 -61 69 -58 2 5 0 189 -3 218 -1 10 -113 86 -130 89 -3
0 -13 3 -21 6 -61 24 -96 30 -175 33 -49 1 -108 -2 -130 -6z"/>
</g>
</svg>
